<svg width="53" height="53" viewBox="0 0 53 53" fill="none" xmlns="http://www.w3.org/2000/svg">
<g filter="url(#filter0_d_347_781)">
<path d="M49 22.5C49 34.9264 38.9264 45 26.5 45C14.0736 45 4 34.9264 4 22.5C4 10.0736 14.0736 0 26.5 0C38.9264 0 49 10.0736 49 22.5Z" fill="#E6E6E6" fill-opacity="0.3" shape-rendering="crispEdges"/>
</g>
<path d="M31.2748 12L18 22.6198" stroke="black" stroke-width="3" stroke-linecap="round"/>
<path d="M30.4146 32.8487C31.0933 33.3238 32.0285 33.1587 32.5036 32.4801C32.9787 31.8014 32.8136 30.8661 32.135 30.391L30.4146 32.8487ZM32.135 30.391L19.0273 21.2156L17.3069 23.6733L30.4146 32.8487L32.135 30.391Z" fill="black"/>
<defs>
<filter id="filter0_d_347_781" x="0" y="0" width="53" height="53" filterUnits="userSpaceOnUse" color-interpolation-filters="sRGB">
<feFlood flood-opacity="0" result="BackgroundImageFix"/>
<feColorMatrix in="SourceAlpha" type="matrix" values="0 0 0 0 0 0 0 0 0 0 0 0 0 0 0 0 0 0 127 0" result="hardAlpha"/>
<feOffset dy="4"/>
<feGaussianBlur stdDeviation="2"/>
<feComposite in2="hardAlpha" operator="out"/>
<feColorMatrix type="matrix" values="0 0 0 0 0 0 0 0 0 0 0 0 0 0 0 0 0 0 0.25 0"/>
<feBlend mode="normal" in2="BackgroundImageFix" result="effect1_dropShadow_347_781"/>
<feBlend mode="normal" in="SourceGraphic" in2="effect1_dropShadow_347_781" result="shape"/>
</filter>
</defs>
</svg>
